<mxfile host="app.diagrams.net" modified="2024-01-25T02:52:04.051Z" agent="Mozilla/5.0 (Windows NT 10.0; Win64; x64) AppleWebKit/537.36 (KHTML, like Gecko) Chrome/120.0.0.0 Safari/537.36" etag="lUfNc1G9W8SwiQ3qJ59w" version="23.0.0" type="github">
  <diagram name="第 1 页" id="08QaNiF1LjzPXGqfLVsa">
    <mxGraphModel dx="2120" dy="670" grid="1" gridSize="10" guides="1" tooltips="1" connect="1" arrows="1" fold="1" page="1" pageScale="1" pageWidth="827" pageHeight="1169" math="0" shadow="0">
      <root>
        <mxCell id="0" />
        <mxCell id="1" parent="0" />
        <mxCell id="aeov21T8_6CWIdq8_FTm-2" value="&lt;p style=&quot;margin:0px;margin-top:4px;text-align:center;&quot;&gt;&lt;b style=&quot;background-color: initial;&quot;&gt;&lt;i&gt;BaseEntity&lt;/i&gt;&lt;/b&gt;&lt;/p&gt;&lt;hr size=&quot;1&quot;&gt;&lt;p style=&quot;margin:0px;margin-left:4px;&quot;&gt;&lt;/p&gt;&lt;p style=&quot;margin:0px;margin-left:4px;&quot;&gt;&lt;i style=&quot;background-color: initial;&quot;&gt;+ toString()&lt;/i&gt;&lt;/p&gt;" style="verticalAlign=top;align=left;overflow=fill;fontSize=12;fontFamily=Helvetica;html=1;whiteSpace=wrap;" parent="1" vertex="1">
          <mxGeometry x="390" y="400" width="100" height="80" as="geometry" />
        </mxCell>
        <mxCell id="aeov21T8_6CWIdq8_FTm-8" style="edgeStyle=orthogonalEdgeStyle;rounded=0;orthogonalLoop=1;jettySize=auto;html=1;exitX=0.5;exitY=0;exitDx=0;exitDy=0;" parent="1" source="aeov21T8_6CWIdq8_FTm-3" target="aeov21T8_6CWIdq8_FTm-2" edge="1">
          <mxGeometry relative="1" as="geometry" />
        </mxCell>
        <mxCell id="aeov21T8_6CWIdq8_FTm-3" value="&lt;i&gt;ImportParameterList&lt;/i&gt;&lt;span style=&quot;background-color:#ffffff;padding:0px 0px 0px 2px;&quot;&gt;&lt;/span&gt;" style="swimlane;fontStyle=1;align=center;verticalAlign=top;childLayout=stackLayout;horizontal=1;startSize=26;horizontalStack=0;resizeParent=1;resizeParentMax=0;resizeLast=0;collapsible=1;marginBottom=0;whiteSpace=wrap;html=1;" parent="1" vertex="1">
          <mxGeometry x="120" y="540" width="160" height="60" as="geometry" />
        </mxCell>
        <mxCell id="aeov21T8_6CWIdq8_FTm-5" value="" style="line;strokeWidth=1;fillColor=none;align=left;verticalAlign=middle;spacingTop=-1;spacingLeft=3;spacingRight=3;rotatable=0;labelPosition=right;points=[];portConstraint=eastwest;strokeColor=inherit;" parent="aeov21T8_6CWIdq8_FTm-3" vertex="1">
          <mxGeometry y="26" width="160" height="8" as="geometry" />
        </mxCell>
        <mxCell id="aeov21T8_6CWIdq8_FTm-6" value="&lt;i style=&quot;border-color: var(--border-color); background-color: initial;&quot;&gt;+ toString()&lt;/i&gt;" style="text;strokeColor=none;fillColor=none;align=left;verticalAlign=top;spacingLeft=4;spacingRight=4;overflow=hidden;rotatable=0;points=[[0,0.5],[1,0.5]];portConstraint=eastwest;whiteSpace=wrap;html=1;" parent="aeov21T8_6CWIdq8_FTm-3" vertex="1">
          <mxGeometry y="34" width="160" height="26" as="geometry" />
        </mxCell>
        <mxCell id="aeov21T8_6CWIdq8_FTm-12" style="edgeStyle=orthogonalEdgeStyle;rounded=0;orthogonalLoop=1;jettySize=auto;html=1;" parent="1" source="aeov21T8_6CWIdq8_FTm-9" target="aeov21T8_6CWIdq8_FTm-2" edge="1">
          <mxGeometry relative="1" as="geometry">
            <Array as="points">
              <mxPoint x="690" y="510" />
              <mxPoint x="440" y="510" />
            </Array>
          </mxGeometry>
        </mxCell>
        <mxCell id="aeov21T8_6CWIdq8_FTm-9" value="&lt;i&gt;Table&lt;/i&gt;&lt;span style=&quot;background-color:#ffffff;padding:0px 0px 0px 2px;&quot;&gt;&lt;/span&gt;" style="swimlane;fontStyle=1;align=center;verticalAlign=top;childLayout=stackLayout;horizontal=1;startSize=26;horizontalStack=0;resizeParent=1;resizeParentMax=0;resizeLast=0;collapsible=1;marginBottom=0;whiteSpace=wrap;html=1;" parent="1" vertex="1">
          <mxGeometry x="610" y="540" width="160" height="60" as="geometry" />
        </mxCell>
        <mxCell id="aeov21T8_6CWIdq8_FTm-10" value="" style="line;strokeWidth=1;fillColor=none;align=left;verticalAlign=middle;spacingTop=-1;spacingLeft=3;spacingRight=3;rotatable=0;labelPosition=right;points=[];portConstraint=eastwest;strokeColor=inherit;" parent="aeov21T8_6CWIdq8_FTm-9" vertex="1">
          <mxGeometry y="26" width="160" height="8" as="geometry" />
        </mxCell>
        <mxCell id="aeov21T8_6CWIdq8_FTm-11" value="&lt;i style=&quot;border-color: var(--border-color); background-color: initial;&quot;&gt;+ toString()&lt;/i&gt;" style="text;strokeColor=none;fillColor=none;align=left;verticalAlign=top;spacingLeft=4;spacingRight=4;overflow=hidden;rotatable=0;points=[[0,0.5],[1,0.5]];portConstraint=eastwest;whiteSpace=wrap;html=1;" parent="aeov21T8_6CWIdq8_FTm-9" vertex="1">
          <mxGeometry y="34" width="160" height="26" as="geometry" />
        </mxCell>
        <mxCell id="aeov21T8_6CWIdq8_FTm-29" style="edgeStyle=orthogonalEdgeStyle;rounded=0;orthogonalLoop=1;jettySize=auto;html=1;" parent="1" source="aeov21T8_6CWIdq8_FTm-13" target="aeov21T8_6CWIdq8_FTm-3" edge="1">
          <mxGeometry relative="1" as="geometry">
            <Array as="points">
              <mxPoint x="200" y="820" />
              <mxPoint x="200" y="820" />
            </Array>
          </mxGeometry>
        </mxCell>
        <mxCell id="aeov21T8_6CWIdq8_FTm-13" value="Zpolory_fm_helloworld" style="swimlane;fontStyle=1;align=center;verticalAlign=top;childLayout=stackLayout;horizontal=1;startSize=26;horizontalStack=0;resizeParent=1;resizeParentMax=0;resizeLast=0;collapsible=1;marginBottom=0;whiteSpace=wrap;html=1;" parent="1" vertex="1">
          <mxGeometry x="110" y="860" width="180" height="198" as="geometry" />
        </mxCell>
        <mxCell id="aeov21T8_6CWIdq8_FTm-14" value="+ Rescode: String&lt;br&gt;+ zteststruct: Zteststruct&lt;br&gt;+ tab_ztestesb: Tab_ztestesb" style="text;strokeColor=none;fillColor=none;align=left;verticalAlign=top;spacingLeft=4;spacingRight=4;overflow=hidden;rotatable=0;points=[[0,0.5],[1,0.5]];portConstraint=eastwest;whiteSpace=wrap;html=1;" parent="aeov21T8_6CWIdq8_FTm-13" vertex="1">
          <mxGeometry y="26" width="180" height="74" as="geometry" />
        </mxCell>
        <mxCell id="aeov21T8_6CWIdq8_FTm-15" value="" style="line;strokeWidth=1;fillColor=none;align=left;verticalAlign=middle;spacingTop=-1;spacingLeft=3;spacingRight=3;rotatable=0;labelPosition=right;points=[];portConstraint=eastwest;strokeColor=inherit;" parent="aeov21T8_6CWIdq8_FTm-13" vertex="1">
          <mxGeometry y="100" width="180" height="8" as="geometry" />
        </mxCell>
        <mxCell id="aeov21T8_6CWIdq8_FTm-16" value="+ method(type): type" style="text;strokeColor=none;fillColor=none;align=left;verticalAlign=top;spacingLeft=4;spacingRight=4;overflow=hidden;rotatable=0;points=[[0,0.5],[1,0.5]];portConstraint=eastwest;whiteSpace=wrap;html=1;" parent="aeov21T8_6CWIdq8_FTm-13" vertex="1">
          <mxGeometry y="108" width="180" height="90" as="geometry" />
        </mxCell>
        <mxCell id="aeov21T8_6CWIdq8_FTm-34" style="edgeStyle=orthogonalEdgeStyle;rounded=0;orthogonalLoop=1;jettySize=auto;html=1;" parent="1" source="aeov21T8_6CWIdq8_FTm-17" target="aeov21T8_6CWIdq8_FTm-25" edge="1">
          <mxGeometry relative="1" as="geometry" />
        </mxCell>
        <mxCell id="aeov21T8_6CWIdq8_FTm-17" value="Zteststruct&lt;span style=&quot;background-color:#ffffff;padding:0px 0px 0px 2px;&quot;&gt;&lt;/span&gt;" style="swimlane;fontStyle=1;align=center;verticalAlign=top;childLayout=stackLayout;horizontal=1;startSize=26;horizontalStack=0;resizeParent=1;resizeParentMax=0;resizeLast=0;collapsible=1;marginBottom=0;whiteSpace=wrap;html=1;" parent="1" vertex="1">
          <mxGeometry x="360" y="670" width="160" height="120" as="geometry" />
        </mxCell>
        <mxCell id="aeov21T8_6CWIdq8_FTm-18" value="+ str1: String&lt;br&gt;+ Num1: int" style="text;strokeColor=none;fillColor=none;align=left;verticalAlign=top;spacingLeft=4;spacingRight=4;overflow=hidden;rotatable=0;points=[[0,0.5],[1,0.5]];portConstraint=eastwest;whiteSpace=wrap;html=1;" parent="aeov21T8_6CWIdq8_FTm-17" vertex="1">
          <mxGeometry y="26" width="160" height="44" as="geometry" />
        </mxCell>
        <mxCell id="aeov21T8_6CWIdq8_FTm-19" value="" style="line;strokeWidth=1;fillColor=none;align=left;verticalAlign=middle;spacingTop=-1;spacingLeft=3;spacingRight=3;rotatable=0;labelPosition=right;points=[];portConstraint=eastwest;strokeColor=inherit;" parent="aeov21T8_6CWIdq8_FTm-17" vertex="1">
          <mxGeometry y="70" width="160" height="8" as="geometry" />
        </mxCell>
        <mxCell id="aeov21T8_6CWIdq8_FTm-20" value="&lt;span style=&quot;border-color: var(--border-color); background-color: initial;&quot;&gt;+ toString(): String&lt;br&gt;+Getter &amp;amp; Setter&lt;br&gt;&lt;/span&gt;" style="text;strokeColor=none;fillColor=none;align=left;verticalAlign=top;spacingLeft=4;spacingRight=4;overflow=hidden;rotatable=0;points=[[0,0.5],[1,0.5]];portConstraint=eastwest;whiteSpace=wrap;html=1;" parent="aeov21T8_6CWIdq8_FTm-17" vertex="1">
          <mxGeometry y="78" width="160" height="42" as="geometry" />
        </mxCell>
        <mxCell id="aeov21T8_6CWIdq8_FTm-32" style="edgeStyle=orthogonalEdgeStyle;rounded=0;orthogonalLoop=1;jettySize=auto;html=1;" parent="1" source="aeov21T8_6CWIdq8_FTm-21" target="aeov21T8_6CWIdq8_FTm-9" edge="1">
          <mxGeometry relative="1" as="geometry" />
        </mxCell>
        <mxCell id="aeov21T8_6CWIdq8_FTm-21" value="&lt;span style=&quot;background-color:#ffffff;padding:0px 0px 0px 2px;&quot;&gt;&lt;/span&gt;Tab_ztestesb" style="swimlane;fontStyle=1;align=center;verticalAlign=top;childLayout=stackLayout;horizontal=1;startSize=26;horizontalStack=0;resizeParent=1;resizeParentMax=0;resizeLast=0;collapsible=1;marginBottom=0;whiteSpace=wrap;html=1;" parent="1" vertex="1">
          <mxGeometry x="610" y="670" width="160" height="130" as="geometry" />
        </mxCell>
        <mxCell id="aeov21T8_6CWIdq8_FTm-22" value="+ ORDERID: String&lt;br&gt;+ CUSTOMID: String&lt;br&gt;+ PRODCTID: String" style="text;strokeColor=none;fillColor=none;align=left;verticalAlign=top;spacingLeft=4;spacingRight=4;overflow=hidden;rotatable=0;points=[[0,0.5],[1,0.5]];portConstraint=eastwest;whiteSpace=wrap;html=1;" parent="aeov21T8_6CWIdq8_FTm-21" vertex="1">
          <mxGeometry y="26" width="160" height="54" as="geometry" />
        </mxCell>
        <mxCell id="aeov21T8_6CWIdq8_FTm-23" value="" style="line;strokeWidth=1;fillColor=none;align=left;verticalAlign=middle;spacingTop=-1;spacingLeft=3;spacingRight=3;rotatable=0;labelPosition=right;points=[];portConstraint=eastwest;strokeColor=inherit;" parent="aeov21T8_6CWIdq8_FTm-21" vertex="1">
          <mxGeometry y="80" width="160" height="8" as="geometry" />
        </mxCell>
        <mxCell id="aeov21T8_6CWIdq8_FTm-24" value="&lt;span style=&quot;border-color: var(--border-color); background-color: initial;&quot;&gt;+ toString(): String&lt;br&gt;+Getter &amp;amp; Setter&lt;br&gt;&lt;/span&gt;" style="text;strokeColor=none;fillColor=none;align=left;verticalAlign=top;spacingLeft=4;spacingRight=4;overflow=hidden;rotatable=0;points=[[0,0.5],[1,0.5]];portConstraint=eastwest;whiteSpace=wrap;html=1;" parent="aeov21T8_6CWIdq8_FTm-21" vertex="1">
          <mxGeometry y="88" width="160" height="42" as="geometry" />
        </mxCell>
        <mxCell id="aeov21T8_6CWIdq8_FTm-35" style="edgeStyle=orthogonalEdgeStyle;rounded=0;orthogonalLoop=1;jettySize=auto;html=1;" parent="1" source="aeov21T8_6CWIdq8_FTm-25" target="aeov21T8_6CWIdq8_FTm-2" edge="1">
          <mxGeometry relative="1" as="geometry" />
        </mxCell>
        <mxCell id="aeov21T8_6CWIdq8_FTm-25" value="&lt;i&gt;Structure&lt;/i&gt;" style="swimlane;fontStyle=1;align=center;verticalAlign=top;childLayout=stackLayout;horizontal=1;startSize=26;horizontalStack=0;resizeParent=1;resizeParentMax=0;resizeLast=0;collapsible=1;marginBottom=0;whiteSpace=wrap;html=1;" parent="1" vertex="1">
          <mxGeometry x="360" y="540" width="160" height="60" as="geometry" />
        </mxCell>
        <mxCell id="aeov21T8_6CWIdq8_FTm-26" value="" style="line;strokeWidth=1;fillColor=none;align=left;verticalAlign=middle;spacingTop=-1;spacingLeft=3;spacingRight=3;rotatable=0;labelPosition=right;points=[];portConstraint=eastwest;strokeColor=inherit;" parent="aeov21T8_6CWIdq8_FTm-25" vertex="1">
          <mxGeometry y="26" width="160" height="8" as="geometry" />
        </mxCell>
        <mxCell id="aeov21T8_6CWIdq8_FTm-27" value="&lt;i style=&quot;border-color: var(--border-color); background-color: initial;&quot;&gt;+ toString()&lt;/i&gt;" style="text;strokeColor=none;fillColor=none;align=left;verticalAlign=top;spacingLeft=4;spacingRight=4;overflow=hidden;rotatable=0;points=[[0,0.5],[1,0.5]];portConstraint=eastwest;whiteSpace=wrap;html=1;" parent="aeov21T8_6CWIdq8_FTm-25" vertex="1">
          <mxGeometry y="34" width="160" height="26" as="geometry" />
        </mxCell>
        <mxCell id="aeov21T8_6CWIdq8_FTm-30" value="Use" style="endArrow=open;endSize=12;dashed=1;html=1;rounded=0;" parent="1" source="aeov21T8_6CWIdq8_FTm-13" target="aeov21T8_6CWIdq8_FTm-17" edge="1">
          <mxGeometry width="160" relative="1" as="geometry">
            <mxPoint x="476" y="723.5866851595007" as="sourcePoint" />
            <mxPoint x="550" y="710" as="targetPoint" />
          </mxGeometry>
        </mxCell>
        <mxCell id="aeov21T8_6CWIdq8_FTm-33" value="Use" style="endArrow=open;endSize=12;dashed=1;html=1;rounded=0;" parent="1" source="aeov21T8_6CWIdq8_FTm-13" target="aeov21T8_6CWIdq8_FTm-21" edge="1">
          <mxGeometry width="160" relative="1" as="geometry">
            <mxPoint x="476" y="723.5866851595007" as="sourcePoint" />
            <mxPoint x="340" y="719.5866851595007" as="targetPoint" />
          </mxGeometry>
        </mxCell>
        <mxCell id="L3BoMsfAjvjnDVtCawtN-1" style="edgeStyle=orthogonalEdgeStyle;rounded=0;orthogonalLoop=1;jettySize=auto;html=1;" edge="1" parent="1" source="aeov21T8_6CWIdq8_FTm-36" target="aeov21T8_6CWIdq8_FTm-2">
          <mxGeometry relative="1" as="geometry" />
        </mxCell>
        <mxCell id="aeov21T8_6CWIdq8_FTm-36" value="Parameters" style="swimlane;fontStyle=1;align=center;verticalAlign=top;childLayout=stackLayout;horizontal=1;startSize=26;horizontalStack=0;resizeParent=1;resizeParentMax=0;resizeLast=0;collapsible=1;marginBottom=0;whiteSpace=wrap;html=1;" parent="1" vertex="1">
          <mxGeometry x="290" y="160" width="300" height="120" as="geometry" />
        </mxCell>
        <mxCell id="aeov21T8_6CWIdq8_FTm-37" value="+ TableParameterList: ArrayList&amp;lt;? extends Table&amp;gt;&lt;br&gt;+ ImportParameterList: ImportParameterList" style="text;strokeColor=none;fillColor=none;align=left;verticalAlign=top;spacingLeft=4;spacingRight=4;overflow=hidden;rotatable=0;points=[[0,0.5],[1,0.5]];portConstraint=eastwest;whiteSpace=wrap;html=1;" parent="aeov21T8_6CWIdq8_FTm-36" vertex="1">
          <mxGeometry y="26" width="300" height="44" as="geometry" />
        </mxCell>
        <mxCell id="aeov21T8_6CWIdq8_FTm-38" value="" style="line;strokeWidth=1;fillColor=none;align=left;verticalAlign=middle;spacingTop=-1;spacingLeft=3;spacingRight=3;rotatable=0;labelPosition=right;points=[];portConstraint=eastwest;strokeColor=inherit;" parent="aeov21T8_6CWIdq8_FTm-36" vertex="1">
          <mxGeometry y="70" width="300" height="8" as="geometry" />
        </mxCell>
        <mxCell id="aeov21T8_6CWIdq8_FTm-39" value="+ toString(): String&lt;br style=&quot;border-color: var(--border-color);&quot;&gt;+Getter &amp;amp; Setter" style="text;strokeColor=none;fillColor=none;align=left;verticalAlign=top;spacingLeft=4;spacingRight=4;overflow=hidden;rotatable=0;points=[[0,0.5],[1,0.5]];portConstraint=eastwest;whiteSpace=wrap;html=1;" parent="aeov21T8_6CWIdq8_FTm-36" vertex="1">
          <mxGeometry y="78" width="300" height="42" as="geometry" />
        </mxCell>
        <mxCell id="aeov21T8_6CWIdq8_FTm-41" value="Use" style="endArrow=open;endSize=12;dashed=1;html=1;rounded=0;" parent="1" source="aeov21T8_6CWIdq8_FTm-36" target="aeov21T8_6CWIdq8_FTm-3" edge="1">
          <mxGeometry width="160" relative="1" as="geometry">
            <mxPoint x="326" y="263.5866851595007" as="sourcePoint" />
            <mxPoint x="190" y="259.5866851595007" as="targetPoint" />
          </mxGeometry>
        </mxCell>
        <mxCell id="aeov21T8_6CWIdq8_FTm-42" value="Use" style="endArrow=open;endSize=12;dashed=1;html=1;rounded=0;jumpStyle=none;" parent="1" source="aeov21T8_6CWIdq8_FTm-36" target="aeov21T8_6CWIdq8_FTm-9" edge="1">
          <mxGeometry width="160" relative="1" as="geometry">
            <mxPoint x="689.5" y="10" as="sourcePoint" />
            <mxPoint x="689.5" y="180" as="targetPoint" />
          </mxGeometry>
        </mxCell>
        <mxCell id="aeov21T8_6CWIdq8_FTm-43" value="&lt;p style=&quot;margin:0px;margin-top:4px;text-align:center;&quot;&gt;&lt;i&gt;&amp;lt;&amp;lt;Interface&amp;gt;&amp;gt;&lt;/i&gt;&lt;br&gt;&lt;b&gt;Transformer&lt;/b&gt;&lt;br&gt;&lt;/p&gt;&lt;hr size=&quot;1&quot;&gt;&lt;p style=&quot;margin:0px;margin-left:4px;&quot;&gt;&lt;/p&gt;&lt;p style=&quot;margin:0px;margin-left:4px;&quot;&gt;+ transform(T): T&lt;/p&gt;" style="verticalAlign=top;align=left;overflow=fill;fontSize=12;fontFamily=Helvetica;html=1;whiteSpace=wrap;" parent="1" vertex="1">
          <mxGeometry x="-170" y="600" width="100" height="70" as="geometry" />
        </mxCell>
        <mxCell id="aeov21T8_6CWIdq8_FTm-62" style="edgeStyle=orthogonalEdgeStyle;rounded=0;orthogonalLoop=1;jettySize=auto;html=1;" parent="1" source="aeov21T8_6CWIdq8_FTm-45" target="aeov21T8_6CWIdq8_FTm-43" edge="1">
          <mxGeometry relative="1" as="geometry" />
        </mxCell>
        <mxCell id="aeov21T8_6CWIdq8_FTm-45" value="Zpolory_fm_helloworldTransformer" style="swimlane;fontStyle=1;align=center;verticalAlign=top;childLayout=stackLayout;horizontal=1;startSize=26;horizontalStack=0;resizeParent=1;resizeParentMax=0;resizeLast=0;collapsible=1;marginBottom=0;whiteSpace=wrap;html=1;" parent="1" vertex="1">
          <mxGeometry x="-285" y="400" width="330" height="70" as="geometry" />
        </mxCell>
        <mxCell id="aeov21T8_6CWIdq8_FTm-47" value="" style="line;strokeWidth=1;fillColor=none;align=left;verticalAlign=middle;spacingTop=-1;spacingLeft=3;spacingRight=3;rotatable=0;labelPosition=right;points=[];portConstraint=eastwest;strokeColor=inherit;" parent="aeov21T8_6CWIdq8_FTm-45" vertex="1">
          <mxGeometry y="26" width="330" height="8" as="geometry" />
        </mxCell>
        <mxCell id="aeov21T8_6CWIdq8_FTm-48" value="+ transform(Zpolory_fm_helloworld):&amp;nbsp;Zpolory_fm_helloworld" style="text;strokeColor=none;fillColor=none;align=left;verticalAlign=top;spacingLeft=4;spacingRight=4;overflow=hidden;rotatable=0;points=[[0,0.5],[1,0.5]];portConstraint=eastwest;whiteSpace=wrap;html=1;" parent="aeov21T8_6CWIdq8_FTm-45" vertex="1">
          <mxGeometry y="34" width="330" height="36" as="geometry" />
        </mxCell>
        <mxCell id="aeov21T8_6CWIdq8_FTm-53" value="TransformationService" style="swimlane;fontStyle=1;align=center;verticalAlign=top;childLayout=stackLayout;horizontal=1;startSize=26;horizontalStack=0;resizeParent=1;resizeParentMax=0;resizeLast=0;collapsible=1;marginBottom=0;whiteSpace=wrap;html=1;" parent="1" vertex="1">
          <mxGeometry x="-230" y="930" width="220" height="60" as="geometry" />
        </mxCell>
        <mxCell id="aeov21T8_6CWIdq8_FTm-55" value="" style="line;strokeWidth=1;fillColor=none;align=left;verticalAlign=middle;spacingTop=-1;spacingLeft=3;spacingRight=3;rotatable=0;labelPosition=right;points=[];portConstraint=eastwest;strokeColor=inherit;" parent="aeov21T8_6CWIdq8_FTm-53" vertex="1">
          <mxGeometry y="26" width="220" height="8" as="geometry" />
        </mxCell>
        <mxCell id="aeov21T8_6CWIdq8_FTm-56" value="+ transformer(Object, Class&amp;lt;T&amp;gt;): &amp;lt;T&amp;gt;" style="text;strokeColor=none;fillColor=none;align=left;verticalAlign=top;spacingLeft=4;spacingRight=4;overflow=hidden;rotatable=0;points=[[0,0.5],[1,0.5]];portConstraint=eastwest;whiteSpace=wrap;html=1;" parent="aeov21T8_6CWIdq8_FTm-53" vertex="1">
          <mxGeometry y="34" width="220" height="26" as="geometry" />
        </mxCell>
        <mxCell id="aeov21T8_6CWIdq8_FTm-57" value="TransformerFactory" style="swimlane;fontStyle=1;align=center;verticalAlign=top;childLayout=stackLayout;horizontal=1;startSize=26;horizontalStack=0;resizeParent=1;resizeParentMax=0;resizeLast=0;collapsible=1;marginBottom=0;whiteSpace=wrap;html=1;" parent="1" vertex="1">
          <mxGeometry x="-290" y="770" width="340" height="86" as="geometry" />
        </mxCell>
        <mxCell id="aeov21T8_6CWIdq8_FTm-58" value="- transformerMap: HashMap&amp;lt;&amp;gt;" style="text;strokeColor=none;fillColor=none;align=left;verticalAlign=top;spacingLeft=4;spacingRight=4;overflow=hidden;rotatable=0;points=[[0,0.5],[1,0.5]];portConstraint=eastwest;whiteSpace=wrap;html=1;" parent="aeov21T8_6CWIdq8_FTm-57" vertex="1">
          <mxGeometry y="26" width="340" height="26" as="geometry" />
        </mxCell>
        <mxCell id="aeov21T8_6CWIdq8_FTm-59" value="" style="line;strokeWidth=1;fillColor=none;align=left;verticalAlign=middle;spacingTop=-1;spacingLeft=3;spacingRight=3;rotatable=0;labelPosition=right;points=[];portConstraint=eastwest;strokeColor=inherit;" parent="aeov21T8_6CWIdq8_FTm-57" vertex="1">
          <mxGeometry y="52" width="340" height="8" as="geometry" />
        </mxCell>
        <mxCell id="aeov21T8_6CWIdq8_FTm-60" value="+ getTransformer(Class&amp;lt;?&amp;gt;, Class&amp;lt;?&amp;gt;): Transformer&amp;lt;?, ?&amp;gt;" style="text;strokeColor=none;fillColor=none;align=left;verticalAlign=top;spacingLeft=4;spacingRight=4;overflow=hidden;rotatable=0;points=[[0,0.5],[1,0.5]];portConstraint=eastwest;whiteSpace=wrap;html=1;" parent="aeov21T8_6CWIdq8_FTm-57" vertex="1">
          <mxGeometry y="60" width="340" height="26" as="geometry" />
        </mxCell>
        <mxCell id="aeov21T8_6CWIdq8_FTm-61" value="Use" style="endArrow=open;endSize=12;dashed=1;html=1;rounded=0;" parent="1" source="aeov21T8_6CWIdq8_FTm-57" target="aeov21T8_6CWIdq8_FTm-43" edge="1">
          <mxGeometry width="160" relative="1" as="geometry">
            <mxPoint x="266" y="743.5866851595007" as="sourcePoint" />
            <mxPoint x="130" y="739.5866851595007" as="targetPoint" />
          </mxGeometry>
        </mxCell>
        <mxCell id="aeov21T8_6CWIdq8_FTm-63" value="Use" style="endArrow=open;endSize=12;dashed=1;html=1;rounded=0;" parent="1" source="aeov21T8_6CWIdq8_FTm-53" target="aeov21T8_6CWIdq8_FTm-57" edge="1">
          <mxGeometry width="160" relative="1" as="geometry">
            <mxPoint x="266" y="743.5866851595007" as="sourcePoint" />
            <mxPoint x="130" y="739.5866851595007" as="targetPoint" />
          </mxGeometry>
        </mxCell>
        <mxCell id="aeov21T8_6CWIdq8_FTm-66" value="Use" style="endArrow=open;endSize=12;dashed=1;html=1;rounded=0;" parent="1" source="aeov21T8_6CWIdq8_FTm-45" target="aeov21T8_6CWIdq8_FTm-13" edge="1">
          <mxGeometry width="160" relative="1" as="geometry">
            <mxPoint x="276" y="693.5866851595007" as="sourcePoint" />
            <mxPoint x="140" y="689.5866851595007" as="targetPoint" />
          </mxGeometry>
        </mxCell>
      </root>
    </mxGraphModel>
  </diagram>
</mxfile>
